<svg width="24" height="24" viewBox="0 0 24 24" fill="none" xmlns="http://www.w3.org/2000/svg">
<path d="M10.6667 6.66668V13.3333L16.3333 16.6933L17.36 14.9867L12.6667 12.2V6.66668H10.6667ZM24 9.33335V2.48043e-05L20.48 3.52002C19.3695 2.40166 18.0482 1.51469 16.5926 0.910481C15.137 0.306267 13.576 -0.00319076 12 2.48043e-05C9.62663 2.48043e-05 7.30655 0.703812 5.33316 2.02239C3.35977 3.34096 1.8217 5.2151 0.913451 7.40781C0.00519935 9.60052 -0.232441 12.0133 0.230582 14.3411C0.693605 16.6689 1.83649 18.8071 3.51472 20.4853C5.19295 22.1635 7.33115 23.3064 9.65892 23.7694C11.9867 24.2324 14.3995 23.9948 16.5922 23.0865C18.7849 22.1783 20.6591 20.6402 21.9776 18.6668C23.2962 16.6935 24 14.3734 24 12H21.3333C21.3333 17.1467 17.1467 21.3333 12 21.3333C6.85334 21.3333 2.66667 17.1467 2.66667 12C2.66667 6.85335 6.85334 2.66669 12 2.66669C14.5733 2.66669 16.9067 3.72002 18.6 5.40002L14.6667 9.33335H24Z" fill="white"/>
</svg>
