<svg width="44" height="44" viewBox="0 0 44 44" fill="none" xmlns="http://www.w3.org/2000/svg">
<g clip-path="url(#clip0_141_1976)">
<path fill-rule="evenodd" clip-rule="evenodd" d="M21.2665 7.66996C20.3474 8.69208 19.2031 10.5088 18.523 12.0254C18.1188 12.9272 17.5313 14.4597 17.5313 14.6126C17.5313 14.6657 17.2315 14.4412 16.8652 14.1138C14.4121 11.9204 11.2657 10.2404 10.7575 10.8527C10.4004 11.283 10.0254 13.808 10.0178 15.8337C10.0144 16.7198 10.0075 17.4449 10.0023 17.445C9.99704 17.4452 9.65494 17.2892 9.24211 17.0985C7.35517 16.2268 4.32676 15.4687 2.73077 15.4687C2.03942 15.4687 1.92238 15.9673 2.19815 17.7358C3.37141 25.2601 9.43175 32.4082 16.8868 35.061L17.832 35.3973L16.4978 35.4018C10.9523 35.4202 5.41202 32.7569 2.29506 28.5743C1.6003 27.6418 1.59392 27.6743 2.51418 27.4415C3.60879 27.1645 3.86278 26.9524 3.73067 26.4262C3.57381 25.8009 2.8609 25.7975 1.04854 26.4133C-0.191488 26.8346 -0.288618 27.1105 0.400972 28.2534C4.2238 34.59 13.1161 38.1555 20.4961 36.3106C21.6356 36.0258 22.3018 36.0332 23.6804 36.3466C31.1947 38.0544 39.7884 34.56 43.6032 28.2458C44.3294 27.0438 44.1718 26.7707 42.4532 26.2511C40.9088 25.7841 40.2704 25.8871 40.2704 26.6032C40.2704 27.0348 40.4634 27.1733 41.4014 27.4141C42.3899 27.6679 42.381 27.6363 41.7227 28.5463C38.7896 32.6004 33.4148 35.2608 27.9297 35.3734L26.168 35.4095L27.1133 35.0619C34.692 32.2759 40.6261 25.2762 41.8019 17.7358C42.0767 15.9739 41.9543 15.4687 41.2531 15.4687C39.6638 15.4687 36.6471 16.2258 34.7579 17.0985C34.3451 17.2892 34.003 17.4452 33.9977 17.445C33.9925 17.4449 33.9857 16.7391 33.9825 15.8766C33.9716 12.9359 33.5184 10.815 32.8753 10.6943C32.1462 10.5576 29.0599 12.3927 27.1541 14.0963L26.5074 14.6743L26.2193 13.8469C25.5938 12.0504 24.6783 10.27 23.6244 8.8012C22.3497 7.02459 21.9984 6.85596 21.2665 7.66996ZM22.4454 9.56053C24.3305 12.1393 25.5664 15.4854 25.9895 19.1553C26.1307 20.3807 26.2295 20.5562 26.7771 20.5562C27.4967 20.5562 27.579 19.7781 27.1152 17.3594L26.9093 16.2852L27.666 15.5466C28.8586 14.3825 31.7267 12.375 32.1969 12.375C32.447 12.375 32.7152 15.4076 32.6164 17.1194L32.5534 18.2115L31.8958 18.6207C27.6459 21.2659 23.7767 26.057 22.3396 30.4545C21.9788 31.5584 22.0212 31.5584 21.6604 30.4545C21.0886 28.7044 19.8015 26.301 18.4991 24.551L17.9353 23.7934L17.8938 22.3572C17.7713 18.112 18.8066 13.9628 20.8077 10.679C21.2238 9.99635 21.9243 9.0234 22 9.0234C22.0291 9.0234 22.2295 9.26518 22.4454 9.56053ZM12.8223 12.9045C14.0093 13.5839 15.3745 14.6105 16.3358 15.5466L17.0944 16.2852L16.9285 17.1016C16.7007 18.2224 16.5 20.177 16.5 21.2759V22.1893L15.6251 21.3574C14.6821 20.4608 13.1609 19.2784 12.104 18.6206L11.4462 18.2113L11.3832 17.2052C11.2777 15.5221 11.5512 12.375 11.8031 12.375C11.8548 12.375 12.3134 12.6133 12.8223 12.9045ZM4.47823 17.0597C12.3724 18.4406 19.7339 25.8215 21.0951 33.7203C21.1674 34.14 21.2266 34.5221 21.2266 34.5693C21.2266 34.6963 20.3629 34.5784 19.189 34.2912C11.7761 32.4771 5.11546 25.598 3.71043 18.3047C3.401 16.6984 3.30475 16.8544 4.47823 17.0597ZM40.501 17.166C39.4433 23.8128 34.9451 29.779 28.6602 32.8716C26.4019 33.9828 22.7734 34.9917 22.7734 34.5083C22.7734 34.216 23.1423 32.5085 23.3725 31.7346C25.4984 24.5895 32.3213 18.3664 39.457 17.0639C40.4673 16.8794 40.5455 16.8871 40.501 17.166Z" fill="white"/>
</g>
<defs>
<clipPath id="clip0_141_1976">
<rect width="44" height="44" fill="white"/>
</clipPath>
</defs>
</svg>
