<svg width="64" height="64" viewBox="0 0 64 64" fill="none" xmlns="http://www.w3.org/2000/svg">
<g clip-path="url(#clip0_141_1856)">
<path fill-rule="evenodd" clip-rule="evenodd" d="M28.625 0.187838C22.6815 1.08512 18.7341 4.39248 17.8092 9.25008C17.7519 9.55072 17.4829 9.9416 16.949 10.5C14.0954 13.4842 12.3876 16.9496 11.5276 21.5C11.3207 22.5947 11.1183 61.3837 11.3125 62.7165C11.5199 64.1384 13.2258 64.5065 14.1304 63.3246C14.2876 63.1193 14.3221 60.2699 14.3823 42.5746C14.4448 24.2011 14.4733 21.9778 14.6554 21.2501C15.2356 18.9312 15.9754 17.0979 16.9757 15.5L17.5626 14.5626L17.6287 23.1875L17.6948 31.8125L18.0213 33.0064C21.5533 45.9149 38.9122 47.7714 44.9021 35.8811C46.309 33.0882 46.3744 32.5021 46.3783 22.6398L46.3815 14.4374L46.8248 15.125C47.4909 16.1576 48.4343 18.1786 48.8088 19.375C49.6044 21.9165 49.5413 20.1082 49.6178 42.5746C49.678 60.2699 49.7125 63.1193 49.8696 63.3246C50.7743 64.5065 52.4802 64.1384 52.6876 62.7165C52.8818 61.3837 52.6794 22.5947 52.4725 21.5C51.6125 16.9496 49.9047 13.4842 47.0511 10.5C46.5172 9.9416 46.2482 9.55072 46.1909 9.25008C44.933 2.64416 37.5575 -1.1608 28.625 0.187838ZM35.804 3.37632C39.7973 4.22256 42.2157 6.2192 43.0935 9.39488C43.2943 10.1214 43.3124 11.0635 43.3109 20.6875L43.3093 31.1875L43.0269 32.1875C42.741 33.1998 41.9056 35.125 41.752 35.125C41.7061 35.125 41.5372 34.9851 41.3765 34.8141C37.1444 30.3091 26.8557 30.3091 22.6236 34.8141C22.4629 34.9851 22.294 35.125 22.248 35.125C22.0944 35.125 21.2591 33.1998 20.9732 32.1875L20.6908 31.1875L20.6892 20.6875C20.6874 9.03584 20.654 9.55024 21.5268 7.79664C23.4036 4.02544 29.6866 2.08016 35.804 3.37632ZM35.2501 34.8603C36.6693 35.3246 38.0855 36.0837 39.1255 36.9374L39.8869 37.5626L39.2658 38.125C38.4932 38.825 37.5554 39.3965 36.2898 39.9392C32.5392 41.5472 27.6679 40.7824 24.7343 38.125L24.1132 37.5626L24.8746 36.9374C27.75 34.5771 31.8655 33.7531 35.2501 34.8603Z" fill="#988A75"/>
</g>
<defs>
<clipPath id="clip0_141_1856">
<rect width="64" height="64" fill="white"/>
</clipPath>
</defs>
</svg>
