<svg width="64" height="64" viewBox="0 0 64 64" fill="none" xmlns="http://www.w3.org/2000/svg">
<g clip-path="url(#clip0_141_1848)">
<path fill-rule="evenodd" clip-rule="evenodd" d="M12.9608 0.245919C11.6584 0.756799 1.4714 10.728 0.823076 12.1266C0.232836 13.3998 0.244036 12.8808 0.279076 37.2653L0.312516 60.4682L0.812516 61.4474C1.39604 62.5901 2.19124 63.3197 3.30916 63.7381L4.01684 64.0027L25.9146 63.9701L47.8125 63.9375L48.4021 63.6651C50.1268 62.8683 51.028 61.381 51.1018 59.2099C51.1594 57.5107 50.9888 57.125 50.1796 57.125C49.3925 57.125 49.209 57.4317 49.1239 58.8903C49.0248 60.5867 48.6877 61.1968 47.5 61.8295C47.0781 62.0543 46.305 62.0626 25.7468 62.0626H4.43092L3.81028 61.7432C3.10756 61.3815 2.54148 60.6683 2.3698 59.9283C2.2442 59.3867 2.20116 14.2728 2.32596 13.9477C2.39316 13.7725 2.92244 13.7498 6.98212 13.7472C12.0869 13.7442 12.169 13.732 13.1047 12.8366C14.0714 11.9118 14.0581 11.9928 14.0994 6.7256L14.1362 2.0136L14.662 1.93824C14.9509 1.8968 22.3594 1.87952 31.125 1.90016L47.0626 1.93744L47.5626 2.20736C49.1458 3.0616 49.125 2.94864 49.125 10.6898C49.125 16.2138 49.1543 17.3189 49.3079 17.616C49.6074 18.1952 50.2432 18.3005 50.7996 17.8629L51.1328 17.6008L51.0976 10.4566L51.0626 3.31248L50.6693 2.56048C50.2064 1.67552 49.2308 0.717599 48.4021 0.334879L47.8125 0.0625586L30.6876 0.0361586C14.1624 0.0107186 13.5415 0.0180786 12.9608 0.245919ZM12.0632 10.7112C12.022 10.9405 11.83 11.2459 11.6112 11.4299L11.2309 11.7501H7.46756H3.70404L7.8834 7.62976L12.0626 3.5096L12.0988 6.91104C12.1188 8.78192 12.1028 10.492 12.0632 10.7112ZM20.9375 6.6112C19.8039 7.1344 19.625 7.62064 19.625 10.1784C19.625 13.1805 20.0864 13.7501 22.5188 13.7501C24.0728 13.7499 24.3751 13.588 24.3751 12.7542C24.3751 11.9834 23.9781 11.7501 22.6671 11.7501H21.6178L21.6527 10.0938L21.6876 8.43744H31.4375H41.1876V10.0626V11.6875L34.2847 11.7501C27.5893 11.8106 27.3746 11.82 27.1383 12.0626C26.7511 12.46 26.745 13.1198 27.125 13.5C27.4501 13.8251 41.1637 13.8973 41.9103 13.5779C42.9783 13.121 43.2517 12.4029 43.2445 10.075C43.2372 7.69136 43.016 7.10544 41.9375 6.61008C41.161 6.2536 21.7103 6.25456 20.9375 6.6112ZM49.0626 20.6666C48.2912 20.9208 47.9962 21.1112 47.2055 21.8648L46.4735 22.5626H44.7055C41.9362 22.5626 40.7509 23.4563 40.3725 25.8296C40.1839 27.0136 39.9564 27.3456 38.9978 27.8354C36.7839 28.9667 36.0175 31.1779 37.1151 33.2677C37.6616 34.3083 37.6629 34.7528 37.1224 35.8184C36.032 37.9687 36.7536 40.0912 38.969 41.2501C39.9543 41.7653 40.1815 42.0963 40.3725 43.2954C40.6212 44.8549 41.6034 46.0551 42.9517 46.4471L43.625 46.6427V51.1671C43.625 56.2736 43.6293 56.2992 44.5756 56.8418C45.5311 57.3895 45.9701 57.2791 48.1954 55.9307L50.1666 54.7365L51.7396 55.704C54.0799 57.1434 54.0919 57.1488 54.849 57.0914C55.5514 57.0379 55.9895 56.7915 56.4298 56.2021C56.6776 55.8704 56.6888 55.6789 56.7232 51.2447L56.7588 46.6323L57.2252 46.5067C58.7464 46.0971 60 44.4827 60 42.9333C60 42.2976 60.4749 41.7437 61.5036 41.1792C63.597 40.0303 64.2525 37.9717 63.2074 35.8285C62.638 34.6607 62.6384 34.4322 63.212 33.2712C64.2717 31.1266 63.5914 29.0637 61.4424 27.9059C60.396 27.3423 60.0632 26.8979 59.9634 25.9317C59.7244 23.6146 58.0973 22.387 55.4844 22.5525C53.9306 22.6507 53.8383 22.6211 52.9684 21.7451C51.9072 20.6768 50.3421 20.2446 49.0626 20.6666ZM50.9658 22.7469C51.1876 22.8821 51.5628 23.2072 51.7996 23.4693C52.6154 24.3722 53.1951 24.5626 55.13 24.5626C57.4095 24.5626 57.7773 24.8014 58.0082 26.4322C58.2256 27.9677 58.9349 28.9311 60.3834 29.6586C61.7903 30.3653 62.0256 31.225 61.2165 32.7008C60.6226 33.784 60.6197 35.3472 61.2098 36.3883C62.0368 37.8477 61.7949 38.7411 60.3751 39.4699C58.8844 40.2351 58.2312 41.1183 58.0122 42.6651C57.785 44.2693 57.11 44.7603 55.4511 44.528C53.7559 44.2907 52.9888 44.5394 51.6908 45.7471C50.4644 46.8879 49.7943 46.8984 48.6639 45.7947C47.4615 44.6208 46.4277 44.2832 44.794 44.5306C43.2602 44.7629 42.6232 44.2912 42.3184 42.6978C41.9834 40.9464 41.5616 40.3544 40.0674 39.5378C38.5306 38.6978 38.3128 37.9999 39.0903 36.4055C39.7525 35.0472 39.7525 34.0778 39.0903 32.7195C38.3119 31.1234 38.5312 30.4219 40.0674 29.5938C41.482 28.8312 42.0274 28.057 42.3144 26.4043C42.4544 25.5979 42.5421 25.3997 42.9296 25.0133L43.3816 24.5626L44.9999 24.6011C46.9495 24.6477 47.433 24.4869 48.5 23.4381C49.4952 22.4597 50.18 22.2677 50.9658 22.7469ZM7.70436 22.884C7.23908 23.2501 7.23908 24 7.70436 24.3659C8.20004 24.7558 32.5343 24.7773 33.0146 24.3883C33.4277 24.0538 33.4277 23.1962 33.0146 22.8616C32.5343 22.4726 8.20004 22.4942 7.70436 22.884ZM48.4375 26.8302C42.5565 28.0733 40.2354 35.4435 44.3316 39.8677C49.2551 45.1855 58.0215 41.7903 58.029 34.5626C58.0344 29.4552 53.4613 25.7685 48.4375 26.8302ZM51.4949 28.8198C55.9703 29.8378 57.5652 35.5162 54.2788 38.7319C50.9885 41.9511 45.6077 40.4103 44.4365 35.9133C43.358 31.7727 47.2556 27.8557 51.4949 28.8198ZM7.64676 29.5394C7.309 29.8991 7.29444 30.4978 7.61396 30.8925L7.85284 31.1875L20.1452 31.2208C28.7591 31.244 32.5356 31.2135 32.765 31.1186C33.3964 30.8575 33.5544 30.0431 33.0682 29.5568L32.7615 29.2501H20.34H7.9186L7.64676 29.5394ZM7.925 35.9275C7.32036 36.1923 7.15956 37.0346 7.625 37.5C7.87172 37.7467 8.04164 37.7501 20.366 37.7501H32.8568L33.116 37.4207C33.4567 36.9875 33.4434 36.5935 33.0733 36.1632L32.7717 35.8125L20.5421 35.7851C10.4708 35.7627 8.2442 35.7879 7.925 35.9275ZM7.6818 42.6818C7.25172 43.112 7.26196 43.768 7.70436 44.116C8.14644 44.4635 32.4698 44.5323 32.9623 44.1874C33.5356 43.7859 33.3764 42.6299 32.7237 42.4551C32.5663 42.413 26.9365 42.3776 20.2132 42.3767L7.98868 42.3751L7.6818 42.6818ZM46.601 46.7099C46.7596 46.8091 47.088 47.1101 47.3309 47.3789C48.8024 49.0077 51.2564 48.9859 52.9938 47.3287C53.6036 46.7469 54.5344 46.2427 54.6975 46.4059C54.7282 46.4365 54.7386 48.4098 54.7204 50.7911L54.6876 55.1203L52.7592 53.9352C50.1439 52.3275 50.2229 52.3277 47.5754 53.9317L45.625 55.1133V50.7418V46.3703L45.9688 46.4499C46.1578 46.4939 46.4423 46.6109 46.601 46.7099ZM7.91444 52.1259C7.32788 52.3623 7.185 53.2779 7.66436 53.7282L7.95364 54H14.4053H20.8568L21.116 53.6707C21.5506 53.1181 21.4436 52.4816 20.8661 52.1829C20.46 51.9728 8.42564 51.9199 7.91444 52.1259Z" fill="#988A75"/>
</g>
<defs>
<clipPath id="clip0_141_1848">
<rect width="64" height="64" fill="white"/>
</clipPath>
</defs>
</svg>
