<?xml version="1.0" encoding="utf-8"?><svg viewBox="0 0 44 44" xmlns="http://www.w3.org/2000/svg" xmlns:xlink="http://www.w3.org/1999/xlink"><style>:root>svg{display:none}:root>svg:target{display:block}</style><svg fill="none" viewBox="0 0 24 24" id="duration" xmlns="http://www.w3.org/2000/svg"><path d="M10.667 6.667v6.666l5.666 3.36 1.027-1.706-4.693-2.787V6.667h-2zM24 9.333V0l-3.52 3.52A11.917 11.917 0 0012 0a12 12 0 1012 12h-2.667c0 5.147-4.186 9.333-9.333 9.333S2.667 17.147 2.667 12 6.853 2.667 12 2.667A9.357 9.357 0 0118.6 5.4l-3.933 3.933H24z" fill="#fff"/></svg><svg fill="none" viewBox="0 0 44 44" id="lilia" xmlns="http://www.w3.org/2000/svg"><g clip-path="url(#bclip0_141_1976)"><path fill-rule="evenodd" clip-rule="evenodd" d="M21.267 7.67c-.92 1.022-2.064 2.839-2.744 4.355-.404.902-.992 2.435-.992 2.588 0 .053-.3-.172-.666-.5-2.453-2.193-5.6-3.873-6.107-3.26-.358.43-.733 2.955-.74 4.98-.004.887-.01 1.612-.016 1.612-.005 0-.347-.156-.76-.346-1.887-.872-4.915-1.63-6.511-1.63-.692 0-.809.498-.533 2.267C3.371 25.26 9.432 32.408 16.887 35.06l.945.336-1.334.005c-5.546.018-11.086-2.645-14.203-6.828-.695-.932-.701-.9.22-1.133 1.094-.276 1.348-.489 1.216-1.015-.157-.625-.87-.628-2.682-.013-1.24.422-1.338.697-.648 1.84 3.823 6.337 12.715 9.903 20.095 8.058 1.14-.285 1.806-.278 3.184.036 7.515 1.707 16.108-1.787 19.923-8.101.726-1.202.569-1.475-1.15-1.995-1.544-.467-2.183-.364-2.183.352 0 .432.193.57 1.131.811.989.254.98.222.322 1.132-2.933 4.054-8.308 6.715-13.793 6.827l-1.762.037.945-.348c7.579-2.786 13.513-9.786 14.689-17.326.275-1.762.152-2.267-.549-2.267-1.59 0-4.606.757-6.495 1.63-.413.19-.755.346-.76.346-.005 0-.012-.706-.015-1.568-.011-2.941-.465-5.062-1.108-5.183-.729-.136-3.815 1.699-5.72 3.402l-.648.578-.288-.827c-.625-1.797-1.54-3.577-2.595-5.046-1.274-1.776-1.626-1.945-2.357-1.131zm1.178 1.89c1.886 2.58 3.121 5.925 3.544 9.595.142 1.226.24 1.401.788 1.401.72 0 .802-.778.338-3.197l-.206-1.074.757-.738c1.193-1.165 4.06-3.172 4.53-3.172.251 0 .52 3.033.42 4.744l-.063 1.093-.657.409c-4.25 2.645-8.12 7.436-9.556 11.834-.361 1.103-.319 1.103-.68 0-.571-1.75-1.858-4.154-3.16-5.904l-.565-.758-.041-1.436c-.123-4.245.913-8.394 2.914-11.678.416-.683 1.116-1.656 1.192-1.656.03 0 .23.242.445.538zm-9.623 3.345a18.965 18.965 0 013.514 2.642l.758.738-.166.817c-.227 1.12-.428 3.075-.428 4.174v.913l-.875-.832c-.943-.896-2.464-2.079-3.521-2.736l-.658-.41-.063-1.006c-.105-1.683.168-4.83.42-4.83.052 0 .51.238 1.02.53zM4.478 17.06c7.894 1.38 15.256 8.762 16.617 16.66.072.42.132.802.132.85 0 .126-.864.008-2.038-.279-7.413-1.814-14.074-8.693-15.479-15.986-.309-1.607-.405-1.45.768-1.245zm36.023.106c-1.058 6.647-5.556 12.613-11.84 15.706-2.26 1.11-5.888 2.12-5.888 1.636 0-.292.37-2 .6-2.773 2.125-7.145 8.948-13.369 16.084-14.671 1.01-.185 1.088-.177 1.044.102z" fill="#fff"/></g><defs><clipPath id="bclip0_141_1976"><path fill="#fff" d="M0 0h44v44H0z"/></clipPath></defs></svg><svg fill="none" viewBox="0 0 26 26" id="play" xmlns="http://www.w3.org/2000/svg"><path d="M13 25c6.627 0 12-5.373 12-12S19.627 1 13 1 1 6.373 1 13s5.373 12 12 12z" stroke="#fff" stroke-width="2" stroke-linecap="round" stroke-linejoin="round"/><path d="M11 8l7 5-7 5V8z" stroke="#fff" stroke-width="2" stroke-linecap="round" stroke-linejoin="round"/></svg><svg fill="none" viewBox="0 0 24 24" id="plus" xmlns="http://www.w3.org/2000/svg"><path d="M12 12H4m8 8v-8 8zm0-8V4v8zm0 0h8-8z" stroke="#BAD5DC" stroke-width="2" stroke-linecap="round"/></svg><svg fill="none" viewBox="0 0 32 32" id="time" xmlns="http://www.w3.org/2000/svg"><path d="M17 28a12 12 0 110-24 12 12 0 010 24zm0-22.286a10.285 10.285 0 100 20.571 10.285 10.285 0 000-20.57z" fill="#fff"/><path d="M20.59 22L15 16.41V7h2v8.58l5 5.01L20.59 22z" fill="#fff"/></svg></svg>