<?xml version="1.0" encoding="utf-8"?><svg viewBox="0 0 66 64" xmlns="http://www.w3.org/2000/svg" xmlns:xlink="http://www.w3.org/1999/xlink"><style>:root>svg{display:none}:root>svg:target{display:block}</style><svg fill="none" viewBox="0 0 31 31" id="done" xmlns="http://www.w3.org/2000/svg"><path d="M14.46 20.691a2.533 2.533 0 01-3.573-.013l-2.774-2.774a1.73 1.73 0 01.038-2.495 1.744 1.744 0 012.432.025l2.09 2.09 8.145-8.144a1.743 1.743 0 012.47 0l.05.05a1.747 1.747 0 01-.012 2.483l-8.867 8.778z" fill="#fff"/></svg><svg fill="none" viewBox="0 0 24 24" id="duration" xmlns="http://www.w3.org/2000/svg"><path d="M10.667 6.667v6.666l5.666 3.36 1.027-1.706-4.693-2.787V6.667h-2zM24 9.333V0l-3.52 3.52A11.917 11.917 0 0012 0a12 12 0 1012 12h-2.667c0 5.147-4.186 9.333-9.333 9.333S2.667 17.147 2.667 12 6.853 2.667 12 2.667A9.357 9.357 0 0118.6 5.4l-3.933 3.933H24z" fill="#fff"/></svg><svg fill="none" viewBox="0 0 24 24" id="fb" xmlns="http://www.w3.org/2000/svg"><g clip-path="url(#cclip0_141_1703)"><path d="M4.382 0A4.373 4.373 0 000 4.382v15.236A4.373 4.373 0 004.382 24h8.258v-9.383h-2.481V11.24h2.48V8.354c0-2.268 1.467-4.35 4.844-4.35 1.367 0 2.378.132 2.378.132l-.08 3.154s-1.03-.01-2.156-.01c-1.218 0-1.413.561-1.413 1.493v2.466h3.666l-.16 3.378h-3.506V24h3.406A4.373 4.373 0 0024 19.618V4.382A4.373 4.373 0 0019.618 0H4.382z" fill="#fff"/></g><defs><clipPath id="cclip0_141_1703"><path fill="#fff" d="M0 0h24v24H0z"/></clipPath></defs></svg><svg fill="none" viewBox="0 0 24 24" id="instagram" xmlns="http://www.w3.org/2000/svg"><path fill-rule="evenodd" clip-rule="evenodd" d="M7.053.072C8.333.013 8.74 0 12 0s3.668.014 4.946.072c1.279.058 2.151.262 2.915.557.8.303 1.525.775 2.125 1.386a5.862 5.862 0 011.383 2.124c.297.764.5 1.636.559 2.913C23.987 8.333 24 8.742 24 12c0 3.26-.014 3.668-.072 4.947-.058 1.277-.262 2.15-.559 2.913a5.887 5.887 0 01-1.383 2.126 5.885 5.885 0 01-2.125 1.383c-.764.297-1.636.5-2.913.559-1.28.059-1.688.072-4.948.072-3.26 0-3.668-.014-4.947-.072-1.277-.058-2.15-.262-2.913-.559a5.889 5.889 0 01-2.126-1.383 5.882 5.882 0 01-1.385-2.125c-.295-.764-.498-1.636-.557-2.913C.013 15.666 0 15.258 0 12c0-3.26.014-3.668.072-4.946.058-1.279.262-2.151.557-2.915.302-.8.775-1.526 1.386-2.125A5.882 5.882 0 014.139.629C4.903.334 5.775.131 7.052.072zm9.796 2.16c-1.265-.058-1.645-.07-4.849-.07s-3.584.012-4.85.07c-1.17.053-1.805.249-2.228.413-.56.219-.96.477-1.38.897a3.722 3.722 0 00-.897 1.38c-.164.423-.36 1.058-.413 2.229-.058 1.265-.07 1.645-.07 4.849s.012 3.584.07 4.85c.053 1.17.249 1.804.413 2.228.192.52.499.992.897 1.38.387.398.86.705 1.38.897.423.164 1.058.36 2.229.413 1.265.058 1.644.07 4.849.07s3.584-.012 4.85-.07c1.17-.053 1.804-.249 2.228-.413.56-.219.96-.477 1.38-.897.398-.387.705-.86.897-1.38.164-.424.36-1.058.413-2.229.058-1.265.07-1.645.07-4.849s-.012-3.584-.07-4.85c-.053-1.17-.249-1.805-.413-2.228a3.725 3.725 0 00-.897-1.38 3.723 3.723 0 00-1.38-.897c-.424-.164-1.058-.36-2.229-.413zm-6.382 13.467a4.002 4.002 0 004.364-6.53 4.003 4.003 0 10-4.364 6.53zM7.64 7.64a6.168 6.168 0 118.722 8.722A6.168 6.168 0 017.64 7.64zm11.897-.888a1.458 1.458 0 10-2-2.121 1.458 1.458 0 002 2.12z" fill="#fff"/></svg><svg fill="none" viewBox="0 0 66 48" id="laptop" xmlns="http://www.w3.org/2000/svg"><path d="M6.818 40.467h52.364V3.82c0-.748-.307-1.465-.852-1.993A2.957 2.957 0 0056.273 1H9.727c-.771 0-1.511.297-2.057.826a2.776 2.776 0 00-.852 1.993v36.648zM3.91 46.106h58.182c2.909 0 2.909-2.82 2.909-2.82H1s0 2.82 2.91 2.82z" stroke="#988A75" stroke-width="2"/></svg><svg fill="none" viewBox="0 0 44 44" id="lilia" xmlns="http://www.w3.org/2000/svg"><g clip-path="url(#fclip0_141_1976)"><path fill-rule="evenodd" clip-rule="evenodd" d="M21.267 7.67c-.92 1.022-2.064 2.839-2.744 4.355-.404.902-.992 2.435-.992 2.588 0 .053-.3-.172-.666-.5-2.453-2.193-5.6-3.873-6.107-3.26-.358.43-.733 2.955-.74 4.98-.004.887-.01 1.612-.016 1.612-.005 0-.347-.156-.76-.346-1.887-.872-4.915-1.63-6.511-1.63-.692 0-.809.498-.533 2.267C3.371 25.26 9.432 32.408 16.887 35.06l.945.336-1.334.005c-5.546.018-11.086-2.645-14.203-6.828-.695-.932-.701-.9.22-1.133 1.094-.276 1.348-.489 1.216-1.015-.157-.625-.87-.628-2.682-.013-1.24.422-1.338.697-.648 1.84 3.823 6.337 12.715 9.903 20.095 8.058 1.14-.285 1.806-.278 3.184.036 7.515 1.707 16.108-1.787 19.923-8.101.726-1.202.569-1.475-1.15-1.995-1.544-.467-2.183-.364-2.183.352 0 .432.193.57 1.131.811.989.254.98.222.322 1.132-2.933 4.054-8.308 6.715-13.793 6.827l-1.762.037.945-.348c7.579-2.786 13.513-9.786 14.689-17.326.275-1.762.152-2.267-.549-2.267-1.59 0-4.606.757-6.495 1.63-.413.19-.755.346-.76.346-.005 0-.012-.706-.015-1.568-.011-2.941-.465-5.062-1.108-5.183-.729-.136-3.815 1.699-5.72 3.402l-.648.578-.288-.827c-.625-1.797-1.54-3.577-2.595-5.046-1.274-1.776-1.626-1.945-2.357-1.131zm1.178 1.89c1.886 2.58 3.121 5.925 3.544 9.595.142 1.226.24 1.401.788 1.401.72 0 .802-.778.338-3.197l-.206-1.074.757-.738c1.193-1.165 4.06-3.172 4.53-3.172.251 0 .52 3.033.42 4.744l-.063 1.093-.657.409c-4.25 2.645-8.12 7.436-9.556 11.834-.361 1.103-.319 1.103-.68 0-.571-1.75-1.858-4.154-3.16-5.904l-.565-.758-.041-1.436c-.123-4.245.913-8.394 2.914-11.678.416-.683 1.116-1.656 1.192-1.656.03 0 .23.242.445.538zm-9.623 3.345a18.965 18.965 0 013.514 2.642l.758.738-.166.817c-.227 1.12-.428 3.075-.428 4.174v.913l-.875-.832c-.943-.896-2.464-2.079-3.521-2.736l-.658-.41-.063-1.006c-.105-1.683.168-4.83.42-4.83.052 0 .51.238 1.02.53zM4.478 17.06c7.894 1.38 15.256 8.762 16.617 16.66.072.42.132.802.132.85 0 .126-.864.008-2.038-.279-7.413-1.814-14.074-8.693-15.479-15.986-.309-1.607-.405-1.45.768-1.245zm36.023.106c-1.058 6.647-5.556 12.613-11.84 15.706-2.26 1.11-5.888 2.12-5.888 1.636 0-.292.37-2 .6-2.773 2.125-7.145 8.948-13.369 16.084-14.671 1.01-.185 1.088-.177 1.044.102z" fill="#fff"/></g><defs><clipPath id="fclip0_141_1976"><path fill="#fff" d="M0 0h44v44H0z"/></clipPath></defs></svg><svg fill="none" viewBox="0 0 64 64" id="nail" xmlns="http://www.w3.org/2000/svg"><g clip-path="url(#gclip0_141_1856)"><path fill-rule="evenodd" clip-rule="evenodd" d="M28.625.188c-5.944.897-9.89 4.204-10.816 9.062-.057.3-.326.692-.86 1.25-2.854 2.984-4.561 6.45-5.421 11-.207 1.095-.41 39.884-.216 41.217.208 1.421 1.914 1.79 2.818.608.158-.206.192-3.055.252-20.75.063-18.374.091-20.597.273-21.325.58-2.319 1.32-4.152 2.32-5.75l.588-.937.066 8.624.066 8.625.326 1.194c3.532 12.909 20.891 14.765 26.881 2.875 1.407-2.793 1.472-3.379 1.476-13.241l.004-8.203.443.688c.666 1.033 1.61 3.054 1.984 4.25.795 2.541.732.733.809 23.2.06 17.695.094 20.544.252 20.75.904 1.181 2.61.813 2.818-.608.194-1.333-.009-40.122-.216-41.217-.86-4.55-2.567-8.016-5.42-11-.535-.558-.804-.95-.861-1.25C44.933 2.644 37.557-1.16 28.625.188zm7.179 3.188c3.993.847 6.412 2.843 7.29 6.019.2.726.218 1.668.217 11.293l-.002 10.5-.282 1c-.286 1.012-1.121 2.937-1.275 2.937-.046 0-.215-.14-.376-.31-4.232-4.506-14.52-4.506-18.752 0-.161.17-.33.31-.376.31-.154 0-.989-1.925-1.275-2.938l-.282-1-.002-10.5c-.002-11.651-.035-11.137.838-12.89 1.877-3.772 8.16-5.717 14.277-4.42zM35.25 34.86c1.42.465 2.836 1.224 3.876 2.077l.76.626-.62.562c-.773.7-1.71 1.272-2.976 1.814-3.75 1.608-8.622.843-11.556-1.814l-.62-.562.76-.626c2.876-2.36 6.992-3.184 10.376-2.077z" fill="#988A75"/></g><defs><clipPath id="gclip0_141_1856"><path fill="#fff" d="M0 0h64v64H0z"/></clipPath></defs></svg><svg fill="none" viewBox="0 0 26 26" id="play" xmlns="http://www.w3.org/2000/svg"><path d="M13 25c6.627 0 12-5.373 12-12S19.627 1 13 1 1 6.373 1 13s5.373 12 12 12z" stroke="#fff" stroke-width="2" stroke-linecap="round" stroke-linejoin="round"/><path d="M11 8l7 5-7 5V8z" stroke="#fff" stroke-width="2" stroke-linecap="round" stroke-linejoin="round"/></svg><svg fill="none" viewBox="0 0 56 56" id="plays" xmlns="http://www.w3.org/2000/svg"><path d="M28 54.667c14.728 0 26.667-11.94 26.667-26.667 0-14.728-11.94-26.667-26.667-26.667C13.272 1.333 1.333 13.273 1.333 28c0 14.728 11.94 26.667 26.667 26.667z" stroke="#988A75" stroke-width="2" stroke-linecap="round" stroke-linejoin="round"/><path d="M22.667 17.333l16 10.667-16 10.667V17.333z" stroke="#988A75" stroke-width="2" stroke-linecap="round" stroke-linejoin="round"/></svg><svg fill="none" viewBox="0 0 17 16" id="plus" xmlns="http://www.w3.org/2000/svg"><path d="M9 8H1m8 8V8v8zm0-8V0v8zm0 0h8-8z" stroke="#988A75" stroke-width="2" stroke-linecap="round"/></svg><svg fill="none" viewBox="0 0 64 64" id="sertificat" xmlns="http://www.w3.org/2000/svg"><g clip-path="url(#kclip0_141_1848)"><path fill-rule="evenodd" clip-rule="evenodd" d="M12.96.246C11.659.756 1.472 10.728.824 12.126c-.59 1.274-.579.755-.544 25.14l.034 23.202.5.98c.583 1.142 1.378 1.872 2.496 2.29l.708.265 21.898-.033 21.898-.032.59-.273c1.724-.797 2.625-2.284 2.699-4.455.057-1.7-.113-2.085-.922-2.085-.788 0-.971.307-1.056 1.765-.1 1.697-.436 2.307-1.624 2.94-.422.224-1.195.233-21.753.233H4.43l-.62-.32c-.703-.361-1.27-1.075-1.441-1.815-.126-.541-.169-45.655-.044-45.98.067-.175.596-.198 4.656-.2 5.105-.004 5.187-.016 6.123-.911.966-.925.953-.844.994-6.111l.037-4.712.526-.076c.289-.041 7.697-.058 16.463-.038l15.938.037.5.27c1.583.855 1.562.742 1.562 8.483 0 5.524.03 6.629.183 6.926.3.58.935.684 1.492.247l.333-.262-.035-7.144-.035-7.145-.394-.752c-.463-.884-1.438-1.842-2.267-2.225l-.59-.272L30.689.036C14.162.011 13.542.018 12.96.246zm-.897 10.465c-.041.23-.233.535-.452.719l-.38.32H3.704l4.18-4.12 4.179-4.12.036 3.401c.02 1.87.004 3.581-.036 3.8zm8.874-4.1c-1.133.523-1.312 1.01-1.312 3.567 0 3.002.461 3.572 2.894 3.572 1.554 0 1.856-.162 1.856-.996 0-.77-.397-1.004-1.708-1.004h-1.05l.036-1.656.035-1.657h19.5v3.25l-6.903.063c-6.696.06-6.91.07-7.147.313-.387.397-.393 1.057-.013 1.437.325.325 14.039.397 14.785.078 1.068-.457 1.342-1.175 1.335-3.503-.008-2.384-.229-2.97-1.307-3.465-.777-.356-20.228-.355-21 .001zm28.126 14.056c-.772.254-1.067.444-1.858 1.198l-.731.698h-1.768c-2.77 0-3.955.893-4.334 3.267-.188 1.184-.416 1.516-1.374 2.005-2.214 1.132-2.98 3.343-1.883 5.433.547 1.04.548 1.485.007 2.55-1.09 2.15-.368 4.273 1.847 5.432.985.515 1.212.846 1.404 2.045.248 1.56 1.23 2.76 2.579 3.152l.673.196v4.524c0 5.107.004 5.132.95 5.675.956.547 1.395.437 3.62-.911l1.972-1.194 1.573.967c2.34 1.44 2.352 1.445 3.109 1.387.702-.053 1.14-.3 1.58-.889.249-.332.26-.523.294-4.957l.036-4.613.466-.125c1.521-.41 2.775-2.024 2.775-3.574 0-.635.475-1.19 1.504-1.754 2.093-1.149 2.748-3.207 1.703-5.35-.569-1.168-.569-1.397.005-2.558 1.06-2.144.38-4.207-1.77-5.365-1.046-.564-1.379-1.008-1.479-1.974-.239-2.317-1.866-3.545-4.479-3.38-1.553.099-1.646.07-2.516-.807-1.06-1.068-2.626-1.5-3.905-1.078zm1.903 2.08c.222.135.597.46.834.722.815.903 1.395 1.094 3.33 1.094 2.28 0 2.647.238 2.878 1.87.218 1.535.927 2.498 2.375 3.226 1.407.706 1.643 1.566.834 3.042-.594 1.083-.597 2.646-.007 3.687.827 1.46.585 2.353-.835 3.082-1.49.765-2.144 1.648-2.363 3.195-.227 1.604-.902 2.095-2.56 1.863-1.696-.237-2.463.011-3.761 1.22-1.227 1.14-1.897 1.15-3.027.047-1.203-1.174-2.236-1.512-3.87-1.264-1.534.232-2.17-.24-2.476-1.833-.335-1.752-.756-2.344-2.25-3.16-1.537-.84-1.755-1.538-.978-3.132.662-1.359.662-2.328 0-3.687-.778-1.596-.559-2.297.977-3.125 1.415-.763 1.96-1.537 2.247-3.19.14-.806.228-1.004.616-1.39l.452-.451L45 24.6c1.95.047 2.433-.114 3.5-1.163.995-.978 1.68-1.17 2.466-.691zm-43.262.137c-.465.366-.465 1.116 0 1.482.496.39 24.83.411 25.31.022.414-.334.414-1.192 0-1.526-.48-.39-24.814-.368-25.31.022zm40.733 3.946c-5.88 1.243-8.202 8.614-4.105 13.038 4.923 5.317 13.69 1.922 13.697-5.305.005-5.108-4.568-8.795-9.592-7.733zm3.058 1.99c4.475 1.018 6.07 6.696 2.784 9.912-3.29 3.22-8.671 1.678-9.843-2.819-1.078-4.14 2.82-8.057 7.059-7.093zm-43.848.72c-.338.36-.353.958-.033 1.352l.239.296 12.292.033c8.614.023 12.39-.008 12.62-.102a.954.954 0 00.303-1.562l-.306-.307H7.918l-.272.29zm.278 6.388c-.605.264-.765 1.107-.3 1.572.247.247.417.25 12.741.25h12.49l.26-.33c.34-.433.327-.827-.043-1.257l-.301-.35-12.23-.028c-10.071-.022-12.298.003-12.617.143zm-.243 6.754c-.43.43-.42 1.086.022 1.434.442.348 24.766.416 25.258.071.574-.401.414-1.557-.238-1.732-.158-.042-5.787-.077-12.51-.078l-12.225-.002-.307.307zM46.6 46.71c.159.1.487.4.73.669 1.471 1.629 3.925 1.607 5.663-.05.61-.582 1.54-1.086 1.703-.923.031.03.042 2.004.023 4.385l-.032 4.33-1.929-1.186c-2.615-1.608-2.536-1.607-5.184-.003l-1.95 1.181V46.37l.344.08c.189.044.473.16.632.26zM7.914 52.126c-.586.236-.729 1.152-.25 1.602l.29.272H20.857l.259-.33c.435-.552.328-1.188-.25-1.487-.406-.21-12.44-.263-12.952-.057z" fill="#988A75"/></g><defs><clipPath id="kclip0_141_1848"><path fill="#fff" d="M0 0h64v64H0z"/></clipPath></defs></svg><svg fill="none" viewBox="0 0 24 24" id="time" xmlns="http://www.w3.org/2000/svg"><path d="M12 24a12 12 0 110-24 12 12 0 010 24zm0-22.286a10.286 10.286 0 100 20.572 10.286 10.286 0 000-20.572z" fill="#fff"/><path d="M15.59 18L10 12.41V3h2v8.58l5 5.01L15.59 18z" fill="#fff"/></svg><svg fill="none" viewBox="0 0 24 18" id="youtube" xmlns="http://www.w3.org/2000/svg"><path d="M23.846 3.974c0-2.109-1.552-3.806-3.47-3.806A170.522 170.522 0 0012.425 0h-.844c-2.7 0-5.354.047-7.951.169C1.716.169.164 1.875.164 3.984A69.718 69.718 0 000 8.99 72.568 72.568 0 00.16 14c0 2.11 1.551 3.82 3.464 3.82 2.729.128 5.527.184 8.373.179 2.85.01 5.641-.05 8.373-.178 1.918 0 3.47-1.711 3.47-3.82.112-1.674.163-3.342.159-5.016a68.16 68.16 0 00-.153-5.01zM9.705 13.588v-9.21l6.797 4.603-6.797 4.607z" fill="#fff"/></svg></svg>