<svg width="32" height="32" viewBox="0 0 32 32" fill="none" xmlns="http://www.w3.org/2000/svg">
<path d="M17 28C14.6266 28 12.3066 27.2962 10.3332 25.9776C8.35977 24.6591 6.8217 22.7849 5.91345 20.5922C5.0052 18.3995 4.76756 15.9867 5.23058 13.6589C5.6936 11.3311 6.83649 9.19295 8.51472 7.51472C10.193 5.83649 12.3311 4.6936 14.6589 4.23058C16.9867 3.76756 19.3995 4.0052 21.5922 4.91345C23.7849 5.8217 25.6591 7.35977 26.9776 9.33316C28.2962 11.3066 29 13.6266 29 16C29 19.1826 27.7357 22.2348 25.4853 24.4853C23.2348 26.7357 20.1826 28 17 28ZM17 5.71429C14.9657 5.71429 12.977 6.31754 11.2856 7.44775C9.59409 8.57795 8.27575 10.1844 7.49724 12.0638C6.71874 13.9433 6.51505 16.0114 6.91193 18.0066C7.3088 20.0019 8.28842 21.8346 9.72691 23.2731C11.1654 24.7116 12.9981 25.6912 14.9934 26.0881C16.9886 26.485 19.0567 26.2813 20.9362 25.5028C22.8156 24.7243 24.4221 23.4059 25.5523 21.7144C26.6825 20.023 27.2857 18.0343 27.2857 16C27.2857 13.2721 26.202 10.6559 24.2731 8.72691C22.3442 6.79796 19.7279 5.71429 17 5.71429Z" fill="white"/>
<path d="M20.59 22L15 16.41V7H17V15.58L22 20.59L20.59 22Z" fill="white"/>
</svg>
