<svg width="24" height="18" viewBox="0 0 24 18" fill="none" xmlns="http://www.w3.org/2000/svg">
<path d="M23.8458 3.97442C23.8458 1.86511 22.294 0.168277 20.3766 0.168277C17.7794 0.0468736 15.1306 0 12.4237 0H11.5799C8.87953 0 6.22607 0.0468737 3.62887 0.168745C1.71613 0.168745 0.164368 1.87495 0.164368 3.98427C0.047166 5.6525 -0.00252777 7.32121 0.000285087 8.98991C-0.004403 10.6586 0.0487287 12.3289 0.15968 14.0007C0.15968 16.11 1.71144 17.8209 3.62418 17.8209C6.35265 17.9475 9.15144 18.0037 11.9971 17.999C14.8475 18.0084 17.6384 17.949 20.37 17.8209C22.2875 17.8209 23.8392 16.11 23.8392 14.0007C23.9517 12.3273 24.0033 10.6586 23.9986 8.98522C24.0092 7.31652 23.9583 5.64625 23.8458 3.97442ZM9.70463 13.5882V4.37754L16.5024 8.98054L9.70463 13.5882Z" fill="white"/>
</svg>
